<svg width="21" height="26" viewBox="0 0 21 26" fill="none" xmlns="http://www.w3.org/2000/svg">
<path d="M13.9166 4.08309C14.3913 3.52538 14.7533 2.87758 14.9817 2.17689C15.2101 1.47619 15.3004 0.7364 15.2476 0C13.7903 0.119916 12.4376 0.81861 11.4808 1.94555C11.0226 2.48566 10.6754 3.114 10.4598 3.79336C10.2441 4.47272 10.1643 5.18929 10.2252 5.90064C10.936 5.90668 11.6387 5.74589 12.2788 5.43071C12.919 5.11554 13.4794 4.65444 13.9166 4.08309ZM17.0807 13.606C17.0892 12.6252 17.3426 11.6628 17.8171 10.8096C18.2916 9.95633 18.9716 9.2404 19.7928 8.72937C19.2745 7.96809 18.5894 7.34039 17.7917 6.89604C16.994 6.45169 16.1058 6.20291 15.1974 6.16944C13.2386 5.96464 11.4306 7.33421 10.3884 7.33421C9.34628 7.33421 7.87724 6.19504 6.24496 6.22063C5.17787 6.25647 4.1381 6.57362 3.22708 7.14117C2.31605 7.70871 1.56487 8.50727 1.0468 9.45895C-1.16304 13.3756 0.481785 19.1995 2.69163 22.361C3.69611 23.9098 4.9517 25.6633 6.60909 25.5993C8.26647 25.5353 8.80638 24.5497 10.7274 24.5497C12.6485 24.5497 13.2386 25.5993 14.8709 25.5609C16.5032 25.5225 17.6583 23.9738 18.713 22.425C19.4602 21.3006 20.0438 20.0719 20.4457 18.7771C19.4507 18.3445 18.6017 17.6242 18.0037 16.7052C17.4056 15.7863 17.0848 14.7088 17.0807 13.606Z" fill="black"/>
</svg>
