<svg width="15" height="18" viewBox="0 0 15 18" fill="none" xmlns="http://www.w3.org/2000/svg">
<path d="M14.0744 10.7801L14.0743 10.7801L14.0788 10.7869C14.2892 11.1067 14.4021 11.488 14.4 11.8798H14.4V11.8831C14.4 12.4132 14.1971 12.9172 13.8429 13.2853C13.4894 13.6527 13.015 13.8545 12.5254 13.8545H2.47743L2.4767 13.8545C2.14198 13.8549 1.8119 13.761 1.52149 13.5806C1.23085 13.4001 0.989878 13.139 0.826827 12.8229L0.295492 13.097L0.826827 12.8229C0.663703 12.5067 0.585553 12.1488 0.602199 11.7877C0.618834 11.4268 0.729399 11.0791 0.920099 10.7815C0.920202 10.7813 0.920305 10.7812 0.920408 10.781L2.0073 9.09073L2.10263 8.94248V8.76622V6.66232C2.10263 5.16088 2.67681 3.72535 3.69197 2.67042C4.70638 1.61629 6.07719 1.02856 7.50144 1.02856C8.9257 1.02856 10.2965 1.61629 11.3109 2.67042C12.3261 3.72535 12.9003 5.16088 12.9003 6.66232V8.76622V8.94145L12.9946 9.08914L14.0744 10.7801ZM9.151 16.7922C9.151 16.847 9.12983 16.8952 9.09904 16.9271C9.069 16.9584 9.03329 16.9714 9.00115 16.9714H6.00174C5.96959 16.9714 5.93388 16.9584 5.90385 16.9272L5.47151 17.3432L5.90384 16.9271C5.87305 16.8952 5.85188 16.847 5.85188 16.7922C5.85188 16.7374 5.87305 16.6892 5.90384 16.6572C5.93388 16.626 5.96959 16.613 6.00174 16.613H9.00115C9.03329 16.613 9.069 16.626 9.09904 16.6572C9.12983 16.6892 9.151 16.7374 9.151 16.7922Z" stroke="#FBBC05" stroke-width="1.2"/>
</svg>
