<svg width="63" height="63" viewBox="0 0 63 63" fill="none" xmlns="http://www.w3.org/2000/svg">
<g clip-path="url(#clip0_2294_753)">
<path d="M63 14.3751V33.4459C63 33.4459 58.9184 34.25 58.0775 34.3557C57.2394 34.4613 54.6053 35.3118 52.6963 33.4769C49.7524 30.6554 39.2927 20.2533 39.2927 20.2533C39.2927 20.2533 37.4892 18.4837 34.5934 20.0131C31.9352 21.4141 27.9949 23.4674 26.349 24.2669C23.2377 25.9229 20.6589 23.2955 20.6589 21.2941C20.6589 19.7417 21.6276 18.6881 23.0124 17.9132C26.7653 15.6381 34.6753 11.1982 37.9698 9.4477C39.9723 8.38262 41.4152 8.29135 44.1645 10.6075C47.5506 13.4552 50.5639 16.051 50.5639 16.051C50.5639 16.051 51.5467 16.8712 53.1142 16.5409C56.9632 15.7271 63 14.3751 63 14.3751ZM21.3674 46.6886C21.874 45.3872 21.7047 43.9317 20.7335 42.9331C19.8609 42.0399 18.5868 41.8044 17.372 42.0828C17.7118 40.8779 17.5242 39.5955 16.6468 38.6904C15.7715 37.7995 14.4999 37.5594 13.2852 37.8403C13.6224 36.6372 13.4353 35.3549 12.5575 34.4525C11.1829 33.0425 8.80524 33.103 7.24328 34.5919C5.68958 36.0828 4.69428 38.784 6.08096 40.3739C7.46535 41.9558 9.05604 40.9933 10.2687 40.717C9.93134 41.9201 8.92054 43.0392 10.1654 44.614C11.409 46.1896 13.1403 45.2337 14.3542 44.9599C14.0157 46.1584 13.049 47.3899 14.2461 48.8501C15.4539 50.3147 17.4321 49.5343 18.7387 49.1284C18.2345 50.4249 17.1552 51.8223 18.5418 53.3884C19.9264 54.9657 23.1259 54.236 24.6888 52.7448C26.2474 51.2539 26.397 48.891 25.0261 47.4766C24.0797 46.5062 22.6687 46.2805 21.3674 46.6886ZM49.8845 36.767C38.5867 25.469 43.9006 30.7853 37.8207 24.6922C37.8207 24.6922 35.9934 22.8731 33.5852 23.9298C31.8946 24.6706 29.718 25.6803 28.0803 26.4511C26.2806 27.3948 24.9855 27.6869 24.3773 27.6828C20.8983 27.6601 18.0756 24.8637 18.0756 21.3881C18.0756 19.1333 19.2726 17.1703 21.0579 16.056C23.5684 14.3188 29.347 11.2452 29.347 11.2452C29.347 11.2452 27.5866 9.0145 23.7302 9.0145C19.875 9.0145 11.8204 14.2912 11.8204 14.2912C11.8204 14.2912 9.53538 15.7548 6.27811 14.4365L0 12.2503V34.0727C0 34.0727 1.79267 34.5915 3.40345 35.2495C3.76725 34.212 4.35426 33.2539 5.16854 32.4627C7.84084 29.9173 12.2702 29.8909 14.7015 32.3944C15.4339 33.1554 15.9451 34.0633 16.2059 35.0668C17.1856 35.3692 18.0729 35.9049 18.786 36.6396C19.5206 37.3955 20.0298 38.3085 20.2928 39.3069C21.2713 39.6096 22.1574 40.1473 22.873 40.8825C23.6787 41.7134 24.2155 42.7171 24.4662 43.8046C25.4891 44.1025 26.4134 44.6569 27.1579 45.418C28.6191 46.9188 29.1377 48.9551 28.8235 50.9192C28.8261 50.9192 28.8309 50.9192 28.8332 50.9237C28.8571 50.9549 29.7385 51.9375 30.2881 52.4917C31.3653 53.5699 33.1241 53.5699 34.2046 52.4917C35.2779 51.4139 35.2826 49.6585 34.2046 48.5752C34.1659 48.5367 30.3185 44.5123 30.6281 44.2003C30.9355 43.8904 35.8373 48.9909 35.9286 49.0842C37.0044 50.1602 38.7621 50.1602 39.8427 49.0842C40.9207 48.0064 40.9184 46.251 39.8427 45.1703C39.7898 45.1199 39.5691 44.9085 39.4873 44.8244C39.4873 44.8244 34.6272 40.4949 34.9971 40.125C35.3716 39.7528 41.4085 45.3865 41.4182 45.3865C42.5034 46.3637 44.1749 46.3565 45.2189 45.312C46.2347 44.2964 46.2564 42.6898 45.356 41.6072C45.3369 41.5496 40.7552 36.7615 41.1128 36.4012C41.4756 36.0363 46.0091 40.7044 46.0186 40.7141C47.0919 41.7898 48.8521 41.7898 49.9327 40.7141C51.0084 39.6382 51.0084 37.8806 49.9327 36.7952C49.918 36.786 49.8988 36.7764 49.8845 36.767Z" fill="#02400D"/>
</g>
<defs>
<clipPath id="clip0_2294_753">
<rect width="63" height="63" fill="white"/>
</clipPath>
</defs>
</svg>
