<svg width="26" height="26" viewBox="0 0 26 26" fill="none" xmlns="http://www.w3.org/2000/svg">
<path d="M10.8333 25.8556C4.69444 24.7722 0 19.4278 0 13C0 5.85 5.85 0 13 0C20.15 0 26 5.85 26 13C26 19.4278 21.3056 24.7722 15.1667 25.8556L14.4444 25.2778H11.5556L10.8333 25.8556Z" fill="url(#paint0_linear_4_610)"/>
<path d="M18.0555 16.6111L18.6333 13H15.1666V10.4722C15.1666 9.46111 15.5277 8.66667 17.1166 8.66667H18.7777V5.34445C17.8388 5.2 16.8277 5.05556 15.8888 5.05556C12.9277 5.05556 10.8333 6.86111 10.8333 10.1111V13H7.58325V16.6111H10.8333V25.7833C11.5555 25.9278 12.2777 26 12.9999 26C13.7221 26 14.4444 25.9278 15.1666 25.7833V16.6111H18.0555Z" fill="white"/>
<defs>
<linearGradient id="paint0_linear_4_610" x1="13" y1="25.1001" x2="13" y2="0" gradientUnits="userSpaceOnUse">
<stop stop-color="#0062E0"/>
<stop offset="1" stop-color="#19AFFF"/>
</linearGradient>
</defs>
</svg>
