<svg width="14" height="20" viewBox="0 0 14 20" fill="none" xmlns="http://www.w3.org/2000/svg">
<path d="M6.71699 19.9996C6.66874 19.9996 6.61986 19.9936 6.57142 19.9812C6.31138 19.9147 6.12947 19.6805 6.12947 19.4121V12.7907L0.587267 12.7887C0.380097 12.7886 0.188279 12.6794 0.0824623 12.5014C-0.0233549 12.3233 -0.0276235 12.1026 0.0713402 11.9207L6.38501 0.30693C6.51334 0.0709369 6.78525 -0.048078 7.04587 0.018185C7.3063 0.0843697 7.48857 0.318836 7.48857 0.58753V7.22127H13.0639C13.2713 7.22127 13.4634 7.33069 13.5692 7.50915C13.675 7.68762 13.6788 7.90861 13.5792 8.09064L7.23229 19.694C7.12753 19.8856 6.92784 19.9996 6.71699 19.9996ZM1.57522 11.6142L6.7171 11.616C7.04145 11.6161 7.30435 11.8791 7.30435 12.2034V17.114L12.073 8.39615H6.90109C6.57667 8.39615 6.31365 8.13313 6.31365 7.80871V2.898L1.57522 11.6142Z" fill="white"/>
</svg>
