<svg width="26" height="27" viewBox="0 0 26 27" fill="none" xmlns="http://www.w3.org/2000/svg">
<path fill-rule="evenodd" clip-rule="evenodd" d="M26.0001 13.5668C26.0001 12.6262 25.9157 11.7217 25.7589 10.8535H13.2654V15.9847H20.4045C20.097 17.6429 19.1624 19.0478 17.7575 19.9884V23.3168H22.0446C24.553 21.0075 26.0001 17.6067 26.0001 13.5668Z" fill="#4285F4"/>
<path fill-rule="evenodd" clip-rule="evenodd" d="M13.2657 26.5306C16.8474 26.5306 19.8502 25.3428 22.045 23.3168L17.7579 19.9884C16.57 20.7843 15.0505 21.2546 13.2657 21.2546C9.81073 21.2546 6.88633 18.9212 5.8432 15.7857H1.41138V19.2226C3.59412 23.558 8.08021 26.5306 13.2657 26.5306Z" fill="#34A853"/>
<path fill-rule="evenodd" clip-rule="evenodd" d="M5.84277 15.7859C5.57746 14.99 5.42672 14.1398 5.42672 13.2655C5.42672 12.3912 5.57746 11.541 5.84277 10.7451V7.3082H1.41095C0.512524 9.09901 0 11.125 0 13.2655C0 15.4061 0.512524 17.432 1.41095 19.2229L5.84277 15.7859Z" fill="#FBBC05"/>
<path fill-rule="evenodd" clip-rule="evenodd" d="M13.2657 5.27598C15.2133 5.27598 16.9619 5.94527 18.3367 7.25975L22.1414 3.45501C19.8441 1.31447 16.8414 0 13.2657 0C8.08021 0 3.59412 2.97264 1.41138 7.30798L5.8432 10.7449C6.88633 7.60947 9.81073 5.27598 13.2657 5.27598Z" fill="#EA4335"/>
</svg>
