<svg width="27" height="32" viewBox="0 0 27 32" fill="none" xmlns="http://www.w3.org/2000/svg">
<path d="M25.6493 12.1766H24.2995V10.8238C24.2995 4.85563 19.4545 0 13.4994 0C7.5443 0 2.69972 4.85563 2.69972 10.8238V12.1766H1.34986C0.603447 12.1766 0 12.7826 0 13.5294V23H27V13.5294C27 12.7826 26.3966 12.1766 25.6501 12.1766H25.6493ZM9.44941 20.2944C9.44941 21.0412 8.84597 21.6472 8.09956 21.6472C7.35314 21.6472 6.7497 21.0412 6.7497 20.2944V17.5883C6.7497 16.8415 7.35314 16.2355 8.09956 16.2355C8.84597 16.2355 9.44941 16.8415 9.44941 17.5883V20.2944ZM14.8497 20.2944C14.8497 21.0412 14.2462 21.6472 13.4998 21.6472C12.7534 21.6472 12.1499 21.0412 12.1499 20.2944V17.5883C12.1499 16.8415 12.7534 16.2355 13.4998 16.2355C14.2462 16.2355 14.8497 16.8415 14.8497 17.5883V20.2944ZM20.2495 20.2944C20.2495 21.0412 19.646 21.6472 18.8996 21.6472C18.1532 21.6472 17.5498 21.0412 17.5498 20.2944V17.5883C17.5498 16.8415 18.1532 16.2355 18.8996 16.2355C19.646 16.2355 20.2495 16.8415 20.2495 17.5883V20.2944ZM21.5994 12.1766H5.39943V10.8238C5.39943 6.34686 9.03226 2.70605 13.4994 2.70605C17.9665 2.70605 21.5994 6.34686 21.5994 10.8238V12.1766Z" fill="#4FCB79"/>
<path d="M0 27.8001C0 30.1155 1.81723 32 4.04998 32H22.95C25.1828 32 27 30.1155 27 27.8001V25H0V27.8001Z" fill="#4FCB79"/>
</svg>
