<svg width="24" height="30" viewBox="0 0 24 30" fill="none" xmlns="http://www.w3.org/2000/svg">
<g clip-path="url(#clip0_2275_600)">
<path d="M19.923 4.35522H8.48305C6.23176 4.35522 4.40674 6.19763 4.40674 8.47036V25.8849C4.40674 28.1576 6.23176 30 8.48305 30H19.923C22.1743 30 23.9993 28.1576 23.9993 25.8849V8.47036C23.9993 6.19763 22.1743 4.35522 19.923 4.35522Z" fill="#4FCB79"/>
<path d="M18.5461 10.2441H9.81094C9.21529 10.2441 8.73242 10.7316 8.73242 11.3329C8.73242 11.9343 9.21529 12.4217 9.81094 12.4217H18.5461C19.1417 12.4217 19.6246 11.9343 19.6246 11.3329C19.6246 10.7316 19.1417 10.2441 18.5461 10.2441Z" fill="white"/>
<path d="M18.5461 16.0885H9.81094C9.21529 16.0885 8.73242 16.576 8.73242 17.1773C8.73242 17.7786 9.21529 18.2661 9.81094 18.2661H18.5461C19.1417 18.2661 19.6246 17.7786 19.6246 17.1773C19.6246 16.576 19.1417 16.0885 18.5461 16.0885Z" fill="white"/>
<path d="M14.9249 21.9335H9.81094C9.21529 21.9335 8.73242 22.4209 8.73242 23.0223C8.73242 23.6236 9.21529 24.1111 9.81094 24.1111H14.9249C15.5205 24.1111 16.0034 23.6236 16.0034 23.0223C16.0034 22.4209 15.5205 21.9335 14.9249 21.9335Z" fill="white"/>
<path d="M13.0581 1.0888C13.0581 0.487654 12.575 0 11.9796 0H3.77653C1.6992 0 0 1.71539 0 3.8125V17.9242C0 18.5253 0.483052 19.013 1.07852 19.013C1.67399 19.013 2.15704 18.5253 2.15704 17.9242V3.96864C2.15704 2.97957 2.95146 2.17759 3.93119 2.17759H11.9796C12.575 2.17759 13.0581 1.68994 13.0581 1.0888Z" fill="#4FCB79"/>
</g>
<defs>
<clipPath id="clip0_2275_600">
<rect width="24" height="30" fill="white"/>
</clipPath>
</defs>
</svg>
