<svg width="28" height="39" viewBox="0 0 28 39" fill="none" xmlns="http://www.w3.org/2000/svg">
<path d="M24.7144 19.005C24.3461 19.005 23.9929 19.071 23.6651 19.1918C23.134 18.2474 22.1327 17.6087 20.9865 17.6087C20.6183 17.6087 20.2651 17.6748 19.9375 17.7955C19.4063 16.8511 18.4049 16.2126 17.2587 16.2126C17.0375 16.2126 16.8217 16.2368 16.6136 16.282V14.0249C16.6136 12.3002 15.2307 10.897 13.5309 10.897C11.8311 10.897 10.4482 12.3002 10.4482 14.0249V23.9734C9.89644 23.8296 9.2193 23.7342 8.38934 23.7202C6.07103 23.6798 4.9098 25.0671 4.80463 26.3719C4.6936 27.7484 5.66823 28.9397 7.07162 29.143C8.64527 29.3712 9.44843 30.6862 10.6285 32.8129C12.1582 35.5695 14.0616 39 19.2973 39C22.773 39 25.319 37.4683 26.6601 34.5702C27.6791 32.3682 27.797 29.8154 27.797 28.0868V22.1328C27.797 20.4081 26.414 19.005 24.7144 19.005ZM25.3595 28.0868C25.3595 33.9485 23.4898 36.5625 19.2973 36.5625C15.4967 36.5625 14.2285 34.2769 12.7599 31.6302C11.5931 29.5273 10.2705 27.1436 7.42116 26.7307C7.28807 26.7115 7.22689 26.6581 7.23433 26.5679C7.24859 26.3896 7.60349 26.1476 8.3479 26.1572C9.79626 26.1819 10.4205 26.5192 10.5661 26.6695C10.7945 27.1508 11.3169 27.4342 11.8551 27.3503C12.4484 27.2576 12.8857 26.7467 12.8857 26.1462V14.0249C12.8857 13.6442 13.1751 13.3345 13.5309 13.3345C13.8866 13.3345 14.1761 13.6442 14.1761 14.0249V19.3404V25.0851C14.1761 25.758 14.7218 26.3038 15.3948 26.3038C16.0678 26.3038 16.6136 25.758 16.6136 25.0851V19.3404C16.6136 18.9597 16.9029 18.6501 17.2587 18.6501C17.6144 18.6501 17.9039 18.9597 17.9039 19.3404V20.7366V25.0851C17.9039 25.758 18.4496 26.3038 19.1226 26.3038C19.7956 26.3038 20.3414 25.758 20.3414 25.0851V20.7366C20.3414 20.3559 20.6307 20.0463 20.9865 20.0463C21.3422 20.0463 21.6315 20.3559 21.6315 20.7366V21.9563C21.6315 21.976 21.6315 22.0931 21.6315 22.1328V25.0851C21.6315 25.758 22.1773 26.3038 22.8503 26.3038C23.5233 26.3038 24.069 25.758 24.069 25.0851V22.1328C24.069 21.7521 24.3585 21.4425 24.7144 21.4425C25.0701 21.4425 25.3595 21.7521 25.3595 22.1328V28.0868Z" fill="#4FCB79"/>
<path d="M3.49367 7.09763C5.42015 7.09763 6.98734 5.50558 6.98734 3.54888C6.98734 1.59205 5.42015 0 3.49367 0C1.56719 0 0 1.59205 0 3.54888C0 5.5057 1.56719 7.09763 3.49367 7.09763ZM3.49367 2.4375C4.07599 2.4375 4.54984 2.93609 4.54984 3.54888C4.54984 4.16154 4.07599 4.66013 3.49367 4.66013C2.91135 4.66013 2.4375 4.16154 2.4375 3.54888C2.4375 2.93609 2.91135 2.4375 3.49367 2.4375Z" fill="#4FCB79"/>
<path d="M13.4953 7.09763C15.4217 7.09763 16.9889 5.50558 16.9889 3.54888C16.9889 1.59205 15.4217 0 13.4953 0C11.5688 0 10.0015 1.59205 10.0015 3.54888C10.0015 5.5057 11.5689 7.09763 13.4953 7.09763ZM13.4953 2.4375C14.0776 2.4375 14.5514 2.93609 14.5514 3.54888C14.5514 4.16154 14.0776 4.66013 13.4953 4.66013C12.9128 4.66013 12.439 4.16154 12.439 3.54888C12.439 2.93609 12.9128 2.4375 13.4953 2.4375Z" fill="#4FCB79"/>
<path d="M23.4967 7.09763C25.4232 7.09763 26.9904 5.50558 26.9904 3.54888C26.9904 1.59205 25.4232 0 23.4967 0C21.5702 0 20.0031 1.59205 20.0031 3.54888C20.0031 5.5057 21.5702 7.09763 23.4967 7.09763ZM23.4967 2.4375C24.079 2.4375 24.5529 2.93609 24.5529 3.54888C24.5529 4.16154 24.079 4.66013 23.4967 4.66013C22.9144 4.66013 22.4406 4.16154 22.4406 3.54888C22.4406 2.93609 22.9144 2.4375 23.4967 2.4375Z" fill="#4FCB79"/>
<path d="M6.98734 13.7927C6.98734 11.8358 5.42015 10.2439 3.49367 10.2439C1.56719 10.2439 0 11.8358 0 13.7927C0 15.7496 1.56719 17.3415 3.49367 17.3415C5.42015 17.3415 6.98734 15.7496 6.98734 13.7927ZM3.49367 14.904C2.91135 14.904 2.4375 14.4054 2.4375 13.7927C2.4375 13.18 2.91135 12.6814 3.49367 12.6814C4.07599 12.6814 4.54984 13.18 4.54984 13.7927C4.54984 14.4054 4.07599 14.904 3.49367 14.904Z" fill="#4FCB79"/>
<path d="M23.4967 17.3415C25.4232 17.3415 26.9904 15.7495 26.9904 13.7927C26.9904 11.8358 25.4232 10.2439 23.4967 10.2439C21.5702 10.2439 20.0031 11.8359 20.0031 13.7927C20.0031 15.7496 21.5702 17.3415 23.4967 17.3415ZM23.4967 12.6814C24.079 12.6814 24.5529 13.18 24.5529 13.7927C24.5529 14.4054 24.079 14.904 23.4967 14.904C22.9144 14.904 22.4406 14.4054 22.4406 13.7927C22.4406 13.18 22.9144 12.6814 23.4967 12.6814Z" fill="#4FCB79"/>
</svg>
