<svg width="16" height="18" viewBox="0 0 16 18" fill="none" xmlns="http://www.w3.org/2000/svg">
<path d="M4.88965 9.15563H10.3338" stroke="#FBBC05" stroke-width="1.2" stroke-miterlimit="10" stroke-linecap="round" stroke-linejoin="round"/>
<path d="M4.88965 12.2666H8.29614" stroke="#FBBC05" stroke-width="1.2" stroke-miterlimit="10" stroke-linecap="round" stroke-linejoin="round"/>
<path d="M6.44512 4.33351H9.55607C11.1115 4.33351 11.1115 3.55578 11.1115 2.77804C11.1115 1.22256 10.3338 1.22256 9.55607 1.22256H6.44512C5.66739 1.22256 4.88965 1.22256 4.88965 2.77804C4.88965 4.33351 5.66739 4.33351 6.44512 4.33351Z" stroke="#FBBC05" stroke-width="1.2" stroke-miterlimit="10" stroke-linecap="round" stroke-linejoin="round"/>
<path d="M11.1116 2.79323C13.7014 2.93322 15.0002 3.88984 15.0002 7.44409V12.1105C15.0002 15.2215 14.2225 16.7769 10.3338 16.7769H5.6674C1.77871 16.7769 1.00098 15.2215 1.00098 12.1105V7.44409C1.00098 3.89761 2.2998 2.93322 4.88966 2.79323" stroke="#FBBC05" stroke-width="1.2" stroke-miterlimit="10" stroke-linecap="round" stroke-linejoin="round"/>
</svg>
