<svg width="20" height="22" viewBox="0 0 20 22" fill="none" xmlns="http://www.w3.org/2000/svg">
<path d="M1 8V13.77C1 15.89 1 15.89 3 17.24L8.5 20.42C9.33 20.9 10.68 20.9 11.5 20.42L17 17.24C19 15.89 19 15.89 19 13.78V8C19 5.89 19 5.89 17 4.54L11.5 1.36C10.68 0.88 9.33 0.88 8.5 1.36L3 4.54C1 5.89 1 5.89 1 8Z" stroke="black" stroke-width="1.5" stroke-linecap="round" stroke-linejoin="round"/>
<path d="M10 13.8901C11.6569 13.8901 13 12.547 13 10.8901C13 9.23328 11.6569 7.89014 10 7.89014C8.34315 7.89014 7 9.23328 7 10.8901C7 12.547 8.34315 13.8901 10 13.8901Z" stroke="black" stroke-width="1.5" stroke-linecap="round" stroke-linejoin="round"/>
</svg>
